<svg width="1080" height="1080" viewBox="0 0 1080 1080" fill="none" xmlns="http://www.w3.org/2000/svg">
<g clip-path="url(#clip0_315_1669)">
<rect width="1080" height="1080" fill="#821923"/>
<g opacity="0.09">
<line x1="-122.053" y1="611.328" x2="1253.1" y2="611.328" stroke="white" stroke-width="1.14691"/>
<line x1="-122.053" y1="904.937" x2="1253.1" y2="904.937" stroke="white" stroke-width="1.14691"/>
<line x1="-122.053" y1="317.718" x2="1253.1" y2="317.718" stroke="white" stroke-width="1.14691"/>
<line x1="-122.053" y1="24.1068" x2="1253.1" y2="24.1068" stroke="white" stroke-width="1.14691"/>
<line x1="-122.053" y1="1051.74" x2="1253.1" y2="1051.74" stroke="white" stroke-width="1.14691"/>
<line x1="-122.053" y1="464.522" x2="1253.1" y2="464.522" stroke="white" stroke-width="1.14691"/>
<line x1="-122.053" y1="758.131" x2="1253.1" y2="758.131" stroke="white" stroke-width="1.14691"/>
<line x1="-122.053" y1="170.913" x2="1253.1" y2="170.913" stroke="white" stroke-width="1.14691"/>
<line x1="-122.053" y1="537.925" x2="1253.1" y2="537.925" stroke="white" stroke-width="1.14691"/>
<line x1="-122.053" y1="831.534" x2="1253.1" y2="831.534" stroke="white" stroke-width="1.14691"/>
<line x1="-122.053" y1="244.315" x2="1253.1" y2="244.315" stroke="white" stroke-width="1.14691"/>
<line x1="-122.053" y1="978.34" x2="1253.1" y2="978.34" stroke="white" stroke-width="1.14691"/>
<line x1="-122.053" y1="391.119" x2="1253.1" y2="391.119" stroke="white" stroke-width="1.14691"/>
<line x1="-122.053" y1="684.73" x2="1253.1" y2="684.73" stroke="white" stroke-width="1.14691"/>
<line x1="-122.053" y1="97.5097" x2="1253.1" y2="97.5097" stroke="white" stroke-width="1.14691"/>
<line x1="508.178" y1="-1.69739" x2="508.178" y2="1060.34" stroke="white" stroke-width="1.14691"/>
<line x1="214.567" y1="-1.69751" x2="214.567" y2="1060.34" stroke="white" stroke-width="1.14691"/>
<line x1="801.785" y1="-1.69739" x2="801.785" y2="1060.34" stroke="white" stroke-width="1.14691"/>
<line x1="67.761" y1="-1.69739" x2="67.7609" y2="1060.34" stroke="white" stroke-width="1.14691"/>
<line x1="654.98" y1="-1.69739" x2="654.98" y2="1060.34" stroke="white" stroke-width="1.14691"/>
<line x1="361.372" y1="-1.69739" x2="361.372" y2="1060.34" stroke="white" stroke-width="1.14691"/>
<line x1="948.591" y1="-1.69751" x2="948.591" y2="1060.34" stroke="white" stroke-width="1.14691"/>
<line x1="581.579" y1="-1.69751" x2="581.579" y2="1060.34" stroke="white" stroke-width="1.14691"/>
<line x1="287.967" y1="-1.69739" x2="287.967" y2="1060.34" stroke="white" stroke-width="1.14691"/>
<line x1="875.191" y1="-1.69739" x2="875.191" y2="1060.34" stroke="white" stroke-width="1.14691"/>
<line x1="141.166" y1="-1.69739" x2="141.166" y2="1060.34" stroke="white" stroke-width="1.14691"/>
<line x1="728.385" y1="-1.69739" x2="728.385" y2="1060.34" stroke="white" stroke-width="1.14691"/>
<line x1="434.774" y1="-1.69739" x2="434.774" y2="1060.34" stroke="white" stroke-width="1.14691"/>
<line x1="1021.99" y1="-1.69739" x2="1021.99" y2="1060.34" stroke="white" stroke-width="1.14691"/>
</g>
<g opacity="0.5">
<rect x="655.034" y="758.079" width="72.9854" height="72.9854" fill="#D9AB52" fill-opacity="0.35"/>
<rect x="288.021" y="758.079" width="72.9854" height="72.9854" fill="#D9AB52" fill-opacity="0.125"/>
<rect x="949.062" y="245.096" width="72.9854" height="71.9427" fill="#D9AB52" fill-opacity="0.2"/>
<rect x="361.008" y="465.049" width="72.9854" height="71.9427" fill="#D9AB52" fill-opacity="0.1"/>
<rect x="875.033" y="318.082" width="72.9854" height="71.9427" fill="#D9AB52" fill-opacity="0.2"/>
<rect x="287.89" y="245.096" width="72.9854" height="71.9427" fill="#D9AB52" fill-opacity="0.1"/>
<rect x="875.033" y="245.096" width="72.9854" height="71.9427" fill="#D9AB52" fill-opacity="0.2"/>
<rect x="287.89" y="465.049" width="72.9854" height="71.9427" fill="#D9AB52" fill-opacity="0.1"/>
<rect x="215.037" y="758.079" width="72.9854" height="72.9854" fill="#D9AB52" fill-opacity="0.125"/>
<rect x="215.037" y="831.065" width="72.9854" height="74.028" fill="#D9AB52" fill-opacity="0.125"/>
<rect x="68.0234" y="685.094" width="72.9854" height="72.9854" fill="#D9AB52" fill-opacity="0.125"/>
<rect x="802.048" y="98.083" width="72.9854" height="72.9854" fill="#D9AB52" fill-opacity="0.1"/>
<rect x="728.265" y="24.6783" width="72.9854" height="72.3304" fill="#D9AB52" fill-opacity="0.1"/>
<rect x="728.265" y="97.6926" width="72.9854" height="72.8055" fill="#D9AB52" fill-opacity="0.1"/>
<rect x="68.0234" y="170.026" width="74.028" height="75.0707" fill="#D9AB52" fill-opacity="0.125"/>
<rect x="-6.00488" y="97.0402" width="74.028" height="72.9854" fill="#D9AB52" fill-opacity="0.125"/>
<rect x="-6.00488" y="170.026" width="74.028" height="75.0707" fill="#D9AB52" fill-opacity="0.125"/>
<rect x="288.022" y="24.0549" width="74.028" height="72.9854" fill="#D9AB52" fill-opacity="0.2"/>
<rect x="68.0234" y="317.039" width="72.9854" height="74.028" fill="#D9AB52" fill-opacity="0.125"/>
<rect x="949.062" y="685.094" width="72.9854" height="72.9854" fill="#D9AB52" fill-opacity="0.1"/>
<rect x="1022.05" y="758.079" width="72.9854" height="72.9854" fill="#D9AB52" fill-opacity="0.1"/>
</g>
</g>
<defs>
<clipPath id="clip0_315_1669">
<rect width="1080" height="1080" fill="white"/>
</clipPath>
</defs>
</svg>
